<svg preserveAspectRatio="none" width="100%" height="100%" overflow="visible" style="display: block;" viewBox="0 0 8.5758 5.00157" fill="none" xmlns="http://www.w3.org/2000/svg">
<g id="Icon">
<path id="Vector" d="M0.147899 1.06005C0.101035 1.01357 0.0638374 0.958269 0.0384531 0.89734C0.0130688 0.83641 0 0.771057 0 0.705051C0 0.639045 0.0130688 0.573693 0.0384531 0.512763C0.0638374 0.451833 0.101035 0.396533 0.147899 0.350052L0.347899 0.150051C0.394441 0.101737 0.450408 0.0634941 0.512333 0.0376921C0.574258 0.0118901 0.640821 -0.000921191 0.707899 5.15163e-05H7.8679C7.93498 -0.000921191 8.00154 0.0118901 8.06347 0.0376921C8.12539 0.0634941 8.18136 0.101737 8.2279 0.150051L8.4279 0.350052C8.47476 0.396533 8.51196 0.451833 8.53734 0.512763C8.56273 0.573693 8.5758 0.639045 8.5758 0.705051C8.5758 0.771057 8.56273 0.83641 8.53734 0.89734C8.51196 0.958269 8.47476 1.01357 8.4279 1.06005L4.6379 4.85005C4.59301 4.89788 4.53879 4.936 4.47859 4.96206C4.4184 4.98812 4.3535 5.00157 4.2879 5.00157C4.2223 5.00157 4.1574 4.98812 4.0972 4.96206C4.03701 4.936 3.98279 4.89788 3.9379 4.85005L0.147899 1.06005Z" fill="var(--fill-0, #8234E4)"/>
</g>
</svg>
