<svg preserveAspectRatio="none" width="100%" height="100%" overflow="visible" style="display: block;" viewBox="0 0 23.3333 23.3333" fill="none" xmlns="http://www.w3.org/2000/svg">
<g id="Icon">
<path id="Vector" d="M11.667 0.5C13.1333 0.500042 14.5857 0.788473 15.9404 1.34961C17.2951 1.91075 18.5257 2.73373 19.5625 3.77051C20.5994 4.80743 21.4222 6.03875 21.9834 7.39355C22.5445 8.7483 22.833 10.2006 22.833 11.667C22.8329 13.8754 22.178 16.0339 20.9512 17.8701C19.7242 19.7064 17.9807 21.1382 15.9404 21.9834C13.9 22.8286 11.6543 23.05 9.48828 22.6191C7.32216 22.1883 5.33219 21.1242 3.77051 19.5625C2.20891 18.0008 1.1457 16.0108 0.714844 13.8447C0.284098 11.6788 0.504584 9.4338 1.34961 7.39355C2.19479 5.35311 3.62654 3.60885 5.46289 2.38184C7.29922 1.15487 9.45847 0.5 11.667 0.5ZM15.7148 6.92871C15.4313 6.92875 15.1595 7.03983 14.957 7.23828L14.9531 7.24121L9.77441 12.4189L8.37891 11.0322H8.37793C8.28129 10.9327 8.16646 10.852 8.03906 10.7969C7.90624 10.7394 7.76287 10.71 7.61816 10.71C7.47341 10.71 7.33011 10.7394 7.19727 10.7969C7.09756 10.84 7.00555 10.8988 6.92383 10.9697L6.85645 11.0332L6.23926 11.6504C6.13788 11.751 6.05689 11.8711 6.00195 12.0029C5.94712 12.1347 5.91897 12.2762 5.91895 12.4189C5.91895 12.5619 5.94697 12.7039 6.00195 12.8359C6.05694 12.9679 6.13776 13.0878 6.23926 13.1885L6.24023 13.1895L9.0166 15.9307V15.9297C9.1132 16.0292 9.22812 16.1089 9.35547 16.1641C9.48831 16.2216 9.63161 16.2519 9.77637 16.252C9.92122 16.252 10.0653 16.2216 10.1982 16.1641C10.326 16.1087 10.4413 16.0287 10.5381 15.9287L17.0957 9.37207L16.7412 9.01855L17.1035 9.36328C17.2955 9.1619 17.4022 8.89443 17.4023 8.61621C17.4023 8.33786 17.2956 8.06964 17.1035 7.86816L17.0957 7.85938L16.4766 7.24121L16.4736 7.23828L16.3945 7.16797C16.2028 7.01354 15.9631 6.92871 15.7148 6.92871Z" fill="var(--fill-0, #FEA01F)" stroke="var(--stroke-0, #FEA01F)"/>
</g>
</svg>
