<svg preserveAspectRatio="none" width="100%" height="100%" overflow="visible" style="display: block;" viewBox="0 0 11.6667 9.66667" fill="none" xmlns="http://www.w3.org/2000/svg">
<path id="Icon" d="M3.43333 0C1.57943 0 0 1.3862 0 3.18653C0 4.4285 0.581564 5.47412 1.35233 6.34028C2.12044 7.20347 3.11143 7.92801 4.00732 8.53443L5.55306 9.58073C5.72234 9.69531 5.94433 9.69531 6.11361 9.58073L7.65935 8.53443C8.55524 7.92801 9.54623 7.20347 10.3143 6.34028C11.0851 5.47412 11.6667 4.4285 11.6667 3.18653C11.6667 1.3862 10.0872 0 8.23333 0C7.27769 0 6.43677 0.448092 5.83333 1.02789C5.22989 0.448093 4.38898 0 3.43333 0Z" fill="var(--fill-0, #ED052A)"/>
</svg>
